<mxfile host="app.diagrams.net" modified="2021-09-13T09:35:41.491Z" agent="5.0 (Windows NT 10.0; Win64; x64) AppleWebKit/537.36 (KHTML, like Gecko) Chrome/93.0.4577.63 Safari/537.36" etag="sbePkZK50MfBIxvwQxqh" version="15.1.1" type="github">
  <diagram id="Lb1kzcmXoc_YPa0N7_yR" name="第 1 页">
    <mxGraphModel dx="629" dy="382" grid="1" gridSize="10" guides="1" tooltips="1" connect="1" arrows="1" fold="1" page="1" pageScale="1" pageWidth="827" pageHeight="1169" math="0" shadow="0">
      <root>
        <mxCell id="0" />
        <mxCell id="1" parent="0" />
        <mxCell id="PQgbL9EoMZY3t9k04Czg-15" value="Service源进程" style="shape=umlLifeline;perimeter=lifelinePerimeter;whiteSpace=wrap;html=1;container=1;collapsible=0;recursiveResize=0;outlineConnect=0;" vertex="1" parent="1">
          <mxGeometry x="160" y="130" width="100" height="360" as="geometry" />
        </mxCell>
        <mxCell id="PQgbL9EoMZY3t9k04Czg-16" value="" style="html=1;points=[];perimeter=orthogonalPerimeter;" vertex="1" parent="PQgbL9EoMZY3t9k04Czg-15">
          <mxGeometry x="45" y="71" width="10" height="29" as="geometry" />
        </mxCell>
        <mxCell id="PQgbL9EoMZY3t9k04Czg-17" value="属性序列化" style="edgeStyle=orthogonalEdgeStyle;html=1;align=left;spacingLeft=2;endArrow=block;rounded=0;entryX=1;entryY=0;" edge="1" target="PQgbL9EoMZY3t9k04Czg-16" parent="PQgbL9EoMZY3t9k04Czg-15">
          <mxGeometry relative="1" as="geometry">
            <mxPoint x="50" y="51" as="sourcePoint" />
            <Array as="points">
              <mxPoint x="80" y="51" />
            </Array>
          </mxGeometry>
        </mxCell>
        <mxCell id="PQgbL9EoMZY3t9k04Czg-26" value="" style="html=1;points=[];perimeter=orthogonalPerimeter;" vertex="1" parent="PQgbL9EoMZY3t9k04Czg-15">
          <mxGeometry x="45" y="141" width="10" height="29" as="geometry" />
        </mxCell>
        <mxCell id="PQgbL9EoMZY3t9k04Czg-27" value="" style="html=1;points=[];perimeter=orthogonalPerimeter;" vertex="1" parent="PQgbL9EoMZY3t9k04Czg-15">
          <mxGeometry x="45" y="211" width="10" height="29" as="geometry" />
        </mxCell>
        <mxCell id="PQgbL9EoMZY3t9k04Czg-28" value="变更OP存入BufferList" style="edgeStyle=orthogonalEdgeStyle;html=1;align=left;spacingLeft=2;endArrow=block;rounded=0;entryX=1;entryY=0;" edge="1" target="PQgbL9EoMZY3t9k04Czg-27" parent="PQgbL9EoMZY3t9k04Czg-15">
          <mxGeometry relative="1" as="geometry">
            <mxPoint x="50" y="191" as="sourcePoint" />
            <Array as="points">
              <mxPoint x="80" y="191" />
            </Array>
          </mxGeometry>
        </mxCell>
        <mxCell id="PQgbL9EoMZY3t9k04Czg-34" value="" style="html=1;points=[];perimeter=orthogonalPerimeter;" vertex="1" parent="PQgbL9EoMZY3t9k04Czg-15">
          <mxGeometry x="45" y="280" width="10" height="50" as="geometry" />
        </mxCell>
        <mxCell id="PQgbL9EoMZY3t9k04Czg-18" value="备份进程" style="shape=umlLifeline;perimeter=lifelinePerimeter;whiteSpace=wrap;html=1;container=1;collapsible=0;recursiveResize=0;outlineConnect=0;" vertex="1" parent="1">
          <mxGeometry x="380" y="130" width="100" height="350" as="geometry" />
        </mxCell>
        <mxCell id="PQgbL9EoMZY3t9k04Czg-21" value="" style="html=1;points=[];perimeter=orthogonalPerimeter;" vertex="1" parent="PQgbL9EoMZY3t9k04Czg-18">
          <mxGeometry x="45" y="91" width="10" height="60" as="geometry" />
        </mxCell>
        <mxCell id="PQgbL9EoMZY3t9k04Czg-29" value="" style="html=1;points=[];perimeter=orthogonalPerimeter;" vertex="1" parent="PQgbL9EoMZY3t9k04Czg-18">
          <mxGeometry x="45" y="234" width="10" height="56" as="geometry" />
        </mxCell>
        <mxCell id="PQgbL9EoMZY3t9k04Czg-22" value="发送snapshot" style="html=1;verticalAlign=bottom;endArrow=block;entryX=0;entryY=0;exitX=1.1;exitY=0.69;exitDx=0;exitDy=0;exitPerimeter=0;" edge="1" target="PQgbL9EoMZY3t9k04Czg-21" parent="1" source="PQgbL9EoMZY3t9k04Czg-16">
          <mxGeometry relative="1" as="geometry">
            <mxPoint x="230" y="221" as="sourcePoint" />
          </mxGeometry>
        </mxCell>
        <mxCell id="PQgbL9EoMZY3t9k04Czg-25" value="反序列化及记录" style="edgeStyle=orthogonalEdgeStyle;html=1;align=left;spacingLeft=2;endArrow=block;rounded=0;entryX=1;entryY=0;" edge="1" parent="1">
          <mxGeometry relative="1" as="geometry">
            <mxPoint x="435" y="241" as="sourcePoint" />
            <Array as="points">
              <mxPoint x="460" y="241" />
            </Array>
            <mxPoint x="435" y="261" as="targetPoint" />
          </mxGeometry>
        </mxCell>
        <mxCell id="PQgbL9EoMZY3t9k04Czg-23" value="返回ACK" style="html=1;verticalAlign=bottom;endArrow=open;dashed=1;endSize=8;exitX=0;exitY=0.95;entryX=1.067;entryY=0.264;entryDx=0;entryDy=0;entryPerimeter=0;" edge="1" source="PQgbL9EoMZY3t9k04Czg-21" parent="1" target="PQgbL9EoMZY3t9k04Czg-26">
          <mxGeometry relative="1" as="geometry">
            <mxPoint x="215" y="275" as="targetPoint" />
          </mxGeometry>
        </mxCell>
        <mxCell id="PQgbL9EoMZY3t9k04Czg-30" value="发送变更OP及version" style="html=1;verticalAlign=bottom;endArrow=block;entryX=0;entryY=0;exitX=1;exitY=0.782;exitDx=0;exitDy=0;exitPerimeter=0;" edge="1" target="PQgbL9EoMZY3t9k04Czg-29" parent="1" source="PQgbL9EoMZY3t9k04Czg-27">
          <mxGeometry relative="1" as="geometry">
            <mxPoint x="355" y="364" as="sourcePoint" />
          </mxGeometry>
        </mxCell>
        <mxCell id="PQgbL9EoMZY3t9k04Czg-33" value="验证version及应用OP" style="edgeStyle=orthogonalEdgeStyle;html=1;align=left;spacingLeft=2;endArrow=block;rounded=0;entryX=1;entryY=0;" edge="1" parent="1">
          <mxGeometry relative="1" as="geometry">
            <mxPoint x="435" y="375" as="sourcePoint" />
            <Array as="points">
              <mxPoint x="460" y="375" />
            </Array>
            <mxPoint x="435" y="395" as="targetPoint" />
          </mxGeometry>
        </mxCell>
        <mxCell id="PQgbL9EoMZY3t9k04Czg-31" value="返回ACK及version" style="html=1;verticalAlign=bottom;endArrow=open;dashed=1;endSize=8;exitX=0;exitY=0.95;entryX=1.022;entryY=0.134;entryDx=0;entryDy=0;entryPerimeter=0;" edge="1" source="PQgbL9EoMZY3t9k04Czg-29" parent="1" target="PQgbL9EoMZY3t9k04Czg-34">
          <mxGeometry relative="1" as="geometry">
            <mxPoint x="320" y="417" as="targetPoint" />
          </mxGeometry>
        </mxCell>
        <mxCell id="PQgbL9EoMZY3t9k04Czg-36" value="BufferList删除version" style="edgeStyle=orthogonalEdgeStyle;html=1;align=left;spacingLeft=2;endArrow=block;rounded=0;entryX=1;entryY=0;" edge="1" parent="1">
          <mxGeometry relative="1" as="geometry">
            <mxPoint x="215" y="430" as="sourcePoint" />
            <Array as="points">
              <mxPoint x="240" y="430" />
            </Array>
            <mxPoint x="215" y="450" as="targetPoint" />
          </mxGeometry>
        </mxCell>
      </root>
    </mxGraphModel>
  </diagram>
</mxfile>
